# xmcd
#
# Track frame offsets: 
#        150
#        26700
#        47780
#        71888
#        94025
#        114452
#        135513
#        154731
#        173627
#        192784
#        217412
#        244846
#
# Disc length: 3509 seconds
#
# Revision: 1
# Processed by: cddbd v1.5.2PL0 Copyright (c) Steve Scherf et al.
# Submitted via: ExactAudioCopy v0.99pb5
#
DISCID=ac0db30c
DTITLE=Trong Tan - Tieng dan bau
DYEAR=2000
DGENRE=Country
TTITLE0=Nguoi Ha Noi
TTITLE1=Ve tham me
TTITLE2=Tinh ca Tay Nguyen
TTITLE3=Ha Noi linh thieng hao hoa
TTITLE4=Tren dinh Truong Son ta hat
TTITLE5=Tieng dan bau
TTITLE6=Bai ca xay dung
TTITLE7=Ve mien Trung
TTITLE8=Ngay mua
TTITLE9=Huyen thoai ho nui Coc
TTITLE10=Ha Noi ngay tro ve
TTITLE11=Viet Nam que huong toi
EXTD=
EXTT0=
EXTT1=
EXTT2=
EXTT3=
EXTT4=
EXTT5=
EXTT6=
EXTT7=
EXTT8=
EXTT9=
EXTT10=
EXTT11=
PLAYORDER=
